<svg width="42" height="24" viewBox="0 0 42 24" fill="none" xmlns="http://www.w3.org/2000/svg">
<path d="M17.0625 9.82812C17.0625 9.99479 17.0312 10.1667 16.9688 10.3438C16.9167 10.5208 16.849 10.6823 16.7656 10.8281C16.6302 10.849 16.5052 10.8958 16.3906 10.9688C16.2865 11.0417 16.2031 11.0885 16.1406 11.1094C16.0052 11.1302 15.8438 11.1406 15.6562 11.1406C15.4792 11.1302 15.3177 11.1302 15.1719 11.1406C14.8906 11.1615 14.6094 11.1927 14.3281 11.2344C14.0573 11.276 13.7865 11.3281 13.5156 11.3906C13.4948 11.3906 13.474 11.3958 13.4531 11.4062C13.4323 11.4062 13.4219 11.4167 13.4219 11.4375C13.4219 11.4583 13.4271 11.4792 13.4375 11.5C13.4479 11.5208 13.4531 11.5417 13.4531 11.5625C13.4531 11.5938 13.4219 11.6094 13.3594 11.6094C13.2448 11.6094 13.1667 11.5729 13.125 11.5C12.7917 11.5833 12.4583 11.6719 12.125 11.7656C11.7917 11.849 11.4583 11.9323 11.125 12.0156C10.9583 12.0469 10.7917 12.0781 10.625 12.1094C10.4688 12.1406 10.3073 12.1823 10.1406 12.2344C10.0573 12.2552 9.97396 12.2917 9.89062 12.3438L9.64062 12.5C9.58854 12.4896 9.54167 12.4844 9.5 12.4844C9.45833 12.474 9.41667 12.4688 9.375 12.4688C9.19792 12.4688 9.01042 12.5052 8.8125 12.5781C8.61458 12.6406 8.44271 12.7292 8.29688 12.8438H8.1875C8.08333 12.8438 8.01042 12.8281 7.96875 12.7969C7.875 12.7865 7.81771 12.8177 7.79688 12.8906C7.77604 12.9531 7.73958 13.0104 7.6875 13.0625C7.33333 13.0938 6.98438 13.1562 6.64062 13.25C6.29688 13.3438 5.95833 13.4479 5.625 13.5625C5.29167 13.6667 4.95312 13.776 4.60938 13.8906C4.27604 13.9948 3.9375 14.0781 3.59375 14.1406C3.55208 14.349 3.53125 14.5885 3.53125 14.8594C3.53125 15.0677 3.54688 15.3073 3.57812 15.5781C3.61979 15.849 3.70312 16.0781 3.82812 16.2656V16.2969C3.82812 16.349 3.80729 16.3854 3.76562 16.4062C3.72396 16.4271 3.70312 16.4635 3.70312 16.5156C3.70312 16.7865 3.72917 17.0417 3.78125 17.2812C3.84375 17.5208 3.90625 17.7552 3.96875 17.9844C4.03125 18.2135 4.08854 18.4427 4.14062 18.6719C4.20312 18.901 4.23438 19.1354 4.23438 19.375C4.23438 19.4375 4.22917 19.4948 4.21875 19.5469C4.21875 19.6094 4.21354 19.6719 4.20312 19.7344C4.23438 19.8281 4.28646 19.9062 4.35938 19.9688C4.43229 20.0312 4.49479 20.1042 4.54688 20.1875C4.55729 20.2396 4.5625 20.2865 4.5625 20.3281V20.4844C4.5625 20.6615 4.54167 20.8177 4.5 20.9531C4.45833 21.0885 4.40625 21.2135 4.34375 21.3281C4.28125 21.4531 4.21354 21.5729 4.14062 21.6875C4.06771 21.8125 4 21.9479 3.9375 22.0938C3.83333 22.1146 3.75 22.125 3.6875 22.125C3.53125 22.125 3.40104 22.0833 3.29688 22C3.20312 21.9167 3.11979 21.8125 3.04688 21.6875C2.97396 21.5729 2.90104 21.4531 2.82812 21.3281C2.76562 21.2031 2.6875 21.099 2.59375 21.0156C2.60417 20.9635 2.60938 20.9167 2.60938 20.875C2.61979 20.8333 2.625 20.7865 2.625 20.7344C2.625 20.526 2.58854 20.3229 2.51562 20.125C2.45312 19.9271 2.38021 19.7396 2.29688 19.5625C2.28646 19.2083 2.25 18.8594 2.1875 18.5156C2.125 18.1719 2.03646 17.8333 1.92188 17.5C1.94271 17.375 1.95833 17.2552 1.96875 17.1406C1.97917 17.0156 1.98438 16.8958 1.98438 16.7812C1.98438 16.4792 1.96875 16.1771 1.9375 15.875C1.90625 15.5729 1.90104 15.2708 1.92188 14.9688C1.89062 14.9167 1.85938 14.875 1.82812 14.8438C1.79688 14.8021 1.77083 14.7552 1.75 14.7031H1.6875C1.53125 14.7031 1.38021 14.7188 1.23438 14.75C1.08854 14.7708 0.942708 14.7812 0.796875 14.7812C0.744792 14.7812 0.697917 14.7812 0.65625 14.7812C0.614583 14.7708 0.567708 14.7604 0.515625 14.75C0.401042 14.6354 0.3125 14.5052 0.25 14.3594C0.1875 14.2135 0.15625 14.0625 0.15625 13.9062C0.15625 13.6771 0.21875 13.4688 0.34375 13.2812C0.604167 13.2188 0.859375 13.1458 1.10938 13.0625C1.36979 12.9688 1.61979 12.8594 1.85938 12.7344C1.89062 12.5781 1.90625 12.4219 1.90625 12.2656C1.91667 12.1094 1.97396 11.9635 2.07812 11.8281C2.04688 11.7448 1.99479 11.6719 1.92188 11.6094C1.85938 11.5365 1.82812 11.4531 1.82812 11.3594C1.82812 11.3073 1.83854 11.2396 1.85938 11.1562C1.96354 11.0417 2.03646 10.8958 2.07812 10.7188C2.11979 10.5417 2.15625 10.3542 2.1875 10.1562C2.21875 9.95833 2.25 9.76042 2.28125 9.5625C2.32292 9.36458 2.39062 9.1875 2.48438 9.03125C2.46354 8.94792 2.44792 8.85938 2.4375 8.76562C2.42708 8.66146 2.42188 8.56771 2.42188 8.48438C2.42188 8.35938 2.42708 8.23438 2.4375 8.10938C2.45833 7.97396 2.48958 7.84896 2.53125 7.73438C2.41667 7.59896 2.32292 7.44271 2.25 7.26562C2.17708 7.07812 2.14062 6.89583 2.14062 6.71875C2.14062 6.375 2.30729 6.15625 2.64062 6.0625C2.63021 6.02083 2.61979 5.98438 2.60938 5.95312C2.60938 5.92188 2.60938 5.89062 2.60938 5.85938C2.60938 5.76562 2.63542 5.67708 2.6875 5.59375C2.73958 5.51042 2.78125 5.42708 2.8125 5.34375C2.76042 5.20833 2.73438 5.09375 2.73438 5C2.73438 4.91667 2.75 4.84375 2.78125 4.78125C2.8125 4.70833 2.83854 4.63021 2.85938 4.54688C2.89062 4.44271 2.91146 4.34896 2.92188 4.26562C2.94271 4.18229 2.97396 4.10938 3.01562 4.04688C3.05729 3.98438 3.10938 3.9375 3.17188 3.90625C3.24479 3.875 3.35417 3.85938 3.5 3.85938C3.72917 3.85938 3.94792 3.93229 4.15625 4.07812C4.375 4.21354 4.54167 4.36979 4.65625 4.54688C4.77083 4.53646 4.86979 4.51562 4.95312 4.48438C5.04688 4.44271 5.13021 4.40625 5.20312 4.375C5.28646 4.34375 5.36979 4.31771 5.45312 4.29688C5.54688 4.26562 5.65625 4.25521 5.78125 4.26562C5.8125 4.19271 5.86458 4.14583 5.9375 4.125C6.02083 4.09375 6.10417 4.07292 6.1875 4.0625C6.27083 4.04167 6.34896 4.01562 6.42188 3.98438C6.49479 3.95312 6.54167 3.89583 6.5625 3.8125C6.60417 3.84375 6.65104 3.85938 6.70312 3.85938C6.75521 3.85938 6.80729 3.85417 6.85938 3.84375C6.91146 3.82292 6.96875 3.8125 7.03125 3.8125C7.09375 3.8125 7.14583 3.83333 7.1875 3.875C7.45833 3.72917 7.74479 3.625 8.04688 3.5625C8.35938 3.48958 8.66667 3.44792 8.96875 3.4375C9.6875 3.04167 10.4427 2.77083 11.2344 2.625C12.0365 2.47917 12.8385 2.40625 13.6406 2.40625C13.7552 2.40625 13.8646 2.40625 13.9688 2.40625C14.0833 2.39583 14.1927 2.40104 14.2969 2.42188C14.4115 2.44271 14.5365 2.47917 14.6719 2.53125C14.8177 2.58333 14.9583 2.64583 15.0938 2.71875C15.2396 2.79167 15.375 2.875 15.5 2.96875C15.625 3.05208 15.7292 3.13021 15.8125 3.20312C15.8958 3.39062 15.9375 3.57292 15.9375 3.75C15.9375 3.83333 15.9323 3.91667 15.9219 4C15.9115 4.07292 15.9062 4.15104 15.9062 4.23438C15.9062 4.35938 15.9323 4.5 15.9844 4.65625C15.9531 4.64583 15.901 4.64062 15.8281 4.64062C15.7344 4.64062 15.6562 4.66146 15.5938 4.70312C15.5312 4.74479 15.474 4.79167 15.4219 4.84375C15.3698 4.89583 15.3177 4.94271 15.2656 4.98438C15.224 5.02604 15.1823 5.04688 15.1406 5.04688C15.0573 5.04688 14.9844 5.03125 14.9219 5C14.8698 4.96875 14.8125 4.9375 14.75 4.90625C14.6979 4.86458 14.6406 4.83333 14.5781 4.8125C14.5156 4.78125 14.4427 4.77083 14.3594 4.78125V4.71875C14.3594 4.60417 14.3229 4.53125 14.25 4.5C14.1771 4.45833 14.1198 4.40104 14.0781 4.32812C13.9219 4.31771 13.7656 4.29688 13.6094 4.26562C13.4635 4.23438 13.3125 4.21875 13.1562 4.21875C12.9479 4.21875 12.7865 4.29167 12.6719 4.4375C12.6198 4.41667 12.5729 4.39062 12.5312 4.35938C12.5 4.32812 12.4531 4.31771 12.3906 4.32812H12.3438C11.7812 4.32812 11.2292 4.39062 10.6875 4.51562C10.1458 4.63021 9.60938 4.77604 9.07812 4.95312C8.54688 5.11979 8.01562 5.30208 7.48438 5.5C6.95312 5.69792 6.42188 5.86979 5.89062 6.01562C5.76562 6.18229 5.63542 6.30729 5.5 6.39062C5.36458 6.46354 5.22917 6.52604 5.09375 6.57812C4.96875 6.63021 4.84375 6.68229 4.71875 6.73438C4.59375 6.78646 4.48438 6.86979 4.39062 6.98438C4.30729 7.09896 4.23958 7.26042 4.1875 7.46875C4.14583 7.66667 4.13542 7.94271 4.15625 8.29688C4.10417 8.35938 4.07292 8.42708 4.0625 8.5C4.05208 8.57292 4.04167 8.64583 4.03125 8.71875C4.02083 8.78125 4.00521 8.84375 3.98438 8.90625C3.96354 8.96875 3.92708 9.02604 3.875 9.07812C3.89583 9.18229 3.91146 9.28646 3.92188 9.39062C3.93229 9.49479 3.9375 9.59896 3.9375 9.70312C3.9375 10.1406 3.86458 10.5677 3.71875 10.9844C3.77083 11.0677 3.79688 11.1615 3.79688 11.2656C3.79688 11.3802 3.78125 11.4844 3.75 11.5781C3.71875 11.6719 3.70312 11.776 3.70312 11.8906C3.70312 12.0052 3.72396 12.099 3.76562 12.1719C3.82812 12.1719 3.86458 12.1927 3.875 12.2344H3.96875C4.15625 12.2344 4.31771 12.1875 4.45312 12.0938C4.58854 12 4.73438 11.9531 4.89062 11.9531C4.92188 11.9531 4.95833 11.9635 5 11.9844C5.04167 12.0052 5.07812 12.0156 5.10938 12.0156C5.18229 12.0156 5.21354 11.9896 5.20312 11.9375C5.19271 11.8854 5.21875 11.849 5.28125 11.8281L5.84375 11.7344C6.19792 11.6719 6.53125 11.599 6.84375 11.5156C7.16667 11.4219 7.48438 11.2865 7.79688 11.1094C7.86979 11.1406 7.95312 11.1562 8.04688 11.1562C8.13021 11.1562 8.21875 11.1458 8.3125 11.125C8.40625 11.0938 8.49479 11.0781 8.57812 11.0781C8.65104 11.0781 8.70833 11.0885 8.75 11.1094C8.8125 11.0677 8.89062 11.0365 8.98438 11.0156C9.07812 10.9844 9.13021 10.9219 9.14062 10.8281H9.17188C9.21354 10.8281 9.24479 10.8385 9.26562 10.8594C9.28646 10.8802 9.31771 10.8906 9.35938 10.8906H9.42188C9.64062 10.7865 9.83854 10.7083 10.0156 10.6562C10.3073 10.5833 10.6198 10.5208 10.9531 10.4688C11.2865 10.4062 11.5833 10.3021 11.8438 10.1562C12.1458 10.1562 12.4375 10.1094 12.7188 10.0156C13.0104 9.91146 13.3021 9.85938 13.5938 9.85938C13.7292 9.85938 13.8542 9.88021 13.9688 9.92188C14.0729 9.84896 14.1927 9.79688 14.3281 9.76562C14.474 9.73438 14.5938 9.67708 14.6875 9.59375C14.75 9.60417 14.8125 9.61458 14.875 9.625C14.9479 9.625 15.0208 9.625 15.0938 9.625C15.4062 9.625 15.7031 9.58333 15.9844 9.5C16.276 9.40625 16.5729 9.33854 16.875 9.29688C16.9479 9.38021 16.9948 9.46875 17.0156 9.5625C17.0469 9.64583 17.0625 9.73438 17.0625 9.82812ZM29.4219 4.10938C29.3385 4.16146 29.25 4.19271 29.1562 4.20312C29.0625 4.21354 28.9635 4.22917 28.8594 4.25C28.7656 4.26042 28.6771 4.28125 28.5938 4.3125C28.5104 4.34375 28.4479 4.40104 28.4062 4.48438C28.3021 4.38021 28.1875 4.29167 28.0625 4.21875C27.9375 4.14583 27.8125 4.06771 27.6875 3.98438C27.5833 4.01562 27.4792 4.05729 27.375 4.10938C27.2708 4.16146 27.1667 4.1875 27.0625 4.1875C26.9896 4.1875 26.9167 4.16146 26.8438 4.10938C26.7604 4.17188 26.6615 4.22396 26.5469 4.26562C26.4427 4.29688 26.3281 4.32812 26.2031 4.35938C26.0885 4.39062 25.9792 4.43229 25.875 4.48438C25.7812 4.53646 25.7135 4.61458 25.6719 4.71875C25.651 4.66667 25.599 4.65104 25.5156 4.67188C25.4427 4.69271 25.401 4.66667 25.3906 4.59375C25.0573 4.70833 24.7188 4.80729 24.375 4.89062C24.0312 4.97396 23.6875 5.0625 23.3438 5.15625C23 5.25 22.6615 5.35417 22.3281 5.46875C21.9948 5.58333 21.6719 5.72396 21.3594 5.89062C21.349 5.90104 21.3438 5.91667 21.3438 5.9375C21.3438 6.04167 21.3594 6.14062 21.3906 6.23438C21.4219 6.32812 21.4479 6.41667 21.4688 6.5C21.2812 7.13542 21.1562 7.78125 21.0938 8.4375C21.0312 9.09375 20.9479 9.73958 20.8438 10.375V10.4375C20.8438 10.4896 20.8646 10.5312 20.9062 10.5625C20.9479 10.5833 20.9688 10.625 20.9688 10.6875L20.9531 10.7188C20.901 10.75 20.8646 10.7969 20.8438 10.8594C20.8229 10.9115 20.8125 10.9688 20.8125 11.0312C20.8125 11.0729 20.8229 11.1354 20.8438 11.2188C20.6667 11.8125 20.5469 12.4167 20.4844 13.0312C20.4323 13.6458 20.3646 14.2604 20.2812 14.875L20.1406 15.9062C20.1198 15.9688 20.099 16.0312 20.0781 16.0938C20.0677 16.1458 20.0625 16.2031 20.0625 16.2656C20.0625 16.599 20.0833 16.9271 20.125 17.25C20.1771 17.5625 20.1927 17.8854 20.1719 18.2188C20.2656 18.3646 20.3125 18.5052 20.3125 18.6406C20.3125 18.6927 20.3073 18.7448 20.2969 18.7969C20.2969 18.849 20.2917 18.901 20.2812 18.9531C20.4167 19.0885 20.5729 19.1823 20.75 19.2344C20.9375 19.2969 21.1042 19.3906 21.25 19.5156V19.5781C21.25 19.6823 21.2344 19.7812 21.2031 19.875C21.1719 19.9792 21.1458 20.0833 21.125 20.1875C21.1042 20.2708 21.0781 20.3906 21.0469 20.5469C21.026 20.7031 20.9948 20.8073 20.9531 20.8594C20.901 20.9323 20.8229 20.9948 20.7188 21.0469C20.625 21.1094 20.5312 21.1406 20.4375 21.1406C20.4062 21.1406 20.3594 21.125 20.2969 21.0938C20.2448 21.0625 20.2031 21.0365 20.1719 21.0156C20.1198 21.0156 20.0521 21.0417 19.9688 21.0938C19.8854 21.1458 19.8021 21.1719 19.7188 21.1719C19.6771 21.1719 19.6406 21.1667 19.6094 21.1562C19.5781 21.1562 19.5417 21.1458 19.5 21.125C19.4583 21.0208 19.3958 20.9271 19.3125 20.8438C19.2396 20.7708 19.151 20.6979 19.0469 20.625C19.0573 20.4792 19.0312 20.3698 18.9688 20.2969C18.9062 20.224 18.8438 20.1302 18.7812 20.0156C18.7604 19.8698 18.7396 19.7031 18.7188 19.5156C18.7083 19.3281 18.6302 19.1927 18.4844 19.1094C18.5365 19.0365 18.5625 18.9375 18.5625 18.8125C18.5625 18.7604 18.5521 18.7031 18.5312 18.6406C18.5208 18.5781 18.4896 18.5312 18.4375 18.5V18.4688C18.4271 18.4167 18.4427 18.3802 18.4844 18.3594C18.5365 18.3281 18.5625 18.2865 18.5625 18.2344V18.1719C18.4896 17.8385 18.4531 17.4896 18.4531 17.125C18.4531 16.7812 18.4635 16.4427 18.4844 16.1094C18.5052 15.7656 18.5052 15.4219 18.4844 15.0781C18.5469 15.026 18.5938 14.9427 18.625 14.8281C18.6667 14.7135 18.6979 14.5885 18.7188 14.4531C18.7396 14.3177 18.75 14.1875 18.75 14.0625C18.7604 13.9271 18.7708 13.8177 18.7812 13.7344C18.8333 13.1406 18.9167 12.5573 19.0312 11.9844C19.1458 11.401 19.2135 10.8073 19.2344 10.2031C19.2865 10.1198 19.3177 10.0104 19.3281 9.875C19.3385 9.73958 19.3438 9.59896 19.3438 9.45312C19.3438 9.29688 19.3542 9.14583 19.375 9C19.3958 8.85417 19.4375 8.72917 19.5 8.625C19.5 8.33333 19.526 8.04167 19.5781 7.75C19.6302 7.44792 19.6562 7.14583 19.6562 6.84375C19.6562 6.69792 19.6406 6.54688 19.6094 6.39062C19.5052 6.34896 19.4115 6.32812 19.3281 6.32812C19.2135 6.32812 19.0938 6.35417 18.9688 6.40625C18.8542 6.44792 18.7708 6.51562 18.7188 6.60938C18.4896 6.61979 18.2656 6.65625 18.0469 6.71875C17.8281 6.78125 17.6094 6.8125 17.3906 6.8125H17.2344C17.1927 6.8125 17.1458 6.80729 17.0938 6.79688C17.0208 6.82812 16.9427 6.85417 16.8594 6.875C16.7865 6.89583 16.7552 6.95833 16.7656 7.0625C16.4427 7.09375 16.125 7.16146 15.8125 7.26562C15.5104 7.36979 15.2083 7.48438 14.9062 7.60938C14.6042 7.72396 14.3021 7.83333 14 7.9375C13.6875 8.04167 13.3698 8.10938 13.0469 8.14062C12.9323 8.19271 12.8594 8.30208 12.8281 8.46875C12.599 8.44792 12.4062 8.39062 12.25 8.29688C12.0938 8.20312 11.9115 8.11458 11.7031 8.03125C11.6406 7.8125 11.6094 7.60417 11.6094 7.40625C11.6094 7.14583 11.6615 6.89583 11.7656 6.65625C11.8698 6.41667 12.0365 6.23958 12.2656 6.125C12.3177 6.13542 12.3646 6.14583 12.4062 6.15625C12.4479 6.15625 12.4948 6.15625 12.5469 6.15625C12.7135 6.15625 12.8802 6.125 13.0469 6.0625C13.2135 6 13.3854 5.96875 13.5625 5.96875C13.6146 5.96875 13.6719 5.98438 13.7344 6.01562C13.8073 5.97396 13.901 5.94271 14.0156 5.92188C14.1198 5.89062 14.2188 5.86458 14.3125 5.84375C14.4167 5.8125 14.5104 5.77083 14.5938 5.71875C14.6771 5.66667 14.7292 5.59375 14.75 5.5C14.8021 5.54167 14.8594 5.56771 14.9219 5.57812C14.9844 5.58854 15.0469 5.59375 15.1094 5.59375C15.2448 5.59375 15.3854 5.56771 15.5312 5.51562C15.6771 5.46354 15.7917 5.38021 15.875 5.26562C15.9479 5.34896 16.0521 5.39062 16.1875 5.39062C16.3333 5.39062 16.474 5.35417 16.6094 5.28125C16.7552 5.19792 16.8958 5.15625 17.0312 5.15625C17.1354 5.15625 17.2135 5.19271 17.2656 5.26562C17.3802 5.17188 17.5156 5.09896 17.6719 5.04688C17.8281 4.99479 17.9844 4.94792 18.1406 4.90625C18.3073 4.86458 18.4583 4.81771 18.5938 4.76562C18.7396 4.71354 18.8542 4.64062 18.9375 4.54688C18.9896 4.55729 19.0729 4.5625 19.1875 4.5625C19.3646 4.5625 19.5312 4.54167 19.6875 4.5C19.8542 4.44792 20.0208 4.40104 20.1875 4.35938L20.5156 4.32812C20.599 4.31771 20.6719 4.29167 20.7344 4.25C20.8073 4.20833 20.8802 4.17188 20.9531 4.14062C21.026 4.10938 21.099 4.08333 21.1719 4.0625C21.2552 4.04167 21.3542 4.03646 21.4688 4.04688C21.7188 3.91146 21.9844 3.80729 22.2656 3.73438C22.5469 3.66146 22.8333 3.59896 23.125 3.54688C23.4167 3.48438 23.7031 3.41667 23.9844 3.34375C24.2656 3.26042 24.5312 3.14062 24.7812 2.98438H24.8281C25.0365 2.98438 25.2396 2.94792 25.4375 2.875C25.6458 2.80208 25.8385 2.70312 26.0156 2.57812C26.0469 2.58854 26.0781 2.59375 26.1094 2.59375H26.2188C26.5104 2.59375 26.7917 2.55208 27.0625 2.46875C27.3438 2.38542 27.6354 2.34375 27.9375 2.34375C28.1146 2.34375 28.2552 2.36979 28.3594 2.42188C28.4635 2.46354 28.5573 2.52083 28.6406 2.59375C28.724 2.65625 28.8125 2.71875 28.9062 2.78125C29 2.84375 29.1198 2.89062 29.2656 2.92188C29.3594 3.09896 29.4062 3.29167 29.4062 3.5C29.4062 3.69792 29.4115 3.90104 29.4219 4.10938ZM41.1406 23.0469C41.1406 23.1406 41.1042 23.224 41.0312 23.2969C40.9688 23.3698 40.8906 23.4271 40.7969 23.4688C40.7031 23.5208 40.6042 23.5677 40.5 23.6094C40.4062 23.651 40.3229 23.6875 40.25 23.7188C40.1354 23.6562 40.0156 23.6146 39.8906 23.5938C39.776 23.5729 39.6719 23.5208 39.5781 23.4375H39.4688C39.3021 23.4375 39.1719 23.4583 39.0781 23.5C38.9323 23.4479 38.8125 23.3698 38.7188 23.2656C38.625 23.1719 38.5365 23.0677 38.4531 22.9531C38.3698 22.849 38.2865 22.7448 38.2031 22.6406C38.1198 22.5365 38.0156 22.4479 37.8906 22.375C37.7031 21.8542 37.5365 21.3281 37.3906 20.7969C37.2448 20.2656 37.1354 19.724 37.0625 19.1719C37.0833 19.1198 37.099 19.0625 37.1094 19C37.1198 18.9375 37.125 18.8802 37.125 18.8281C37.125 18.7865 37.1146 18.7448 37.0938 18.7031C37.0833 18.651 37.0521 18.6198 37 18.6094C37.0521 18.526 37.0833 18.4323 37.0938 18.3281C37.1146 18.2135 37.125 18.1094 37.125 18.0156C37.125 17.8073 37.1042 17.6354 37.0625 17.5C37.125 17.4479 37.151 17.3646 37.1406 17.25C37.1302 17.125 37.1562 17.0365 37.2188 16.9844C37.1667 16.8073 37.1406 16.6354 37.1406 16.4688C37.1406 16.2396 37.1667 16.0156 37.2188 15.7969C37.2812 15.5781 37.3125 15.3542 37.3125 15.125C37.3125 15.0729 37.3073 15.0208 37.2969 14.9688C37.2969 14.9167 37.2917 14.8646 37.2812 14.8125C37.3333 14.6458 37.3802 14.4792 37.4219 14.3125C37.474 14.1354 37.5 13.9583 37.5 13.7812C37.5 13.6562 37.4792 13.5521 37.4375 13.4688C37.5729 12.9896 37.6667 12.5156 37.7188 12.0469C37.7812 11.5677 37.8385 11.0833 37.8906 10.5938C37.8802 10.5729 37.8698 10.5573 37.8594 10.5469C37.849 10.5365 37.8438 10.5208 37.8438 10.5C37.8438 10.4479 37.8698 10.4062 37.9219 10.375C37.9844 10.3438 38.0104 10.2865 38 10.2031C37.875 10.3281 37.7708 10.474 37.6875 10.6406C37.6146 10.8073 37.5417 10.974 37.4688 11.1406C37.4062 11.3073 37.3333 11.474 37.25 11.6406C37.1771 11.7969 37.0781 11.9375 36.9531 12.0625C36.9427 12.1771 36.9062 12.2865 36.8438 12.3906C36.7917 12.4948 36.7656 12.6094 36.7656 12.7344C36.7552 12.7344 36.7448 12.7344 36.7344 12.7344C36.724 12.724 36.7083 12.7188 36.6875 12.7188C36.6458 12.7188 36.6146 12.7448 36.5938 12.7969C36.5833 12.849 36.5521 12.8646 36.5 12.8438C36.2604 13.3125 35.9948 13.7708 35.7031 14.2188C35.4219 14.6667 35.0521 15.026 34.5938 15.2969C34.5104 15.2656 34.4323 15.25 34.3594 15.25C34.224 15.25 34.0885 15.2917 33.9531 15.375C33.8281 15.4479 33.7448 15.4844 33.7031 15.4844C33.599 15.4844 33.4688 15.4323 33.3125 15.3281C33.1667 15.2135 33.0156 15.151 32.8594 15.1406C32.6927 15.026 32.5521 14.9115 32.4375 14.7969C32.3333 14.6719 32.1719 14.599 31.9531 14.5781C31.8073 14.3594 31.6615 14.151 31.5156 13.9531C31.3802 13.7552 31.2448 13.5625 31.1094 13.375C30.9844 13.1771 30.8698 12.9688 30.7656 12.75C30.6719 12.5312 30.599 12.2865 30.5469 12.0156C30.5573 11.9948 30.5625 11.974 30.5625 11.9531C30.5625 11.8906 30.5312 11.8646 30.4688 11.875C30.4167 11.8854 30.3906 11.8542 30.3906 11.7812V11.6719C30.3906 11.5885 30.375 11.5156 30.3438 11.4531C30.3229 11.3802 30.3177 11.3021 30.3281 11.2188C30.2552 11.1042 30.1979 10.9844 30.1562 10.8594C30.1146 10.7344 30.0417 10.625 29.9375 10.5312V10.3906C29.9375 10.3281 29.9323 10.2708 29.9219 10.2188C29.9219 10.1562 29.9062 10.1042 29.875 10.0625C29.8542 10.0104 29.8177 9.97917 29.7656 9.96875C29.7552 9.59375 29.6771 9.21354 29.5312 8.82812C29.3958 8.43229 29.2708 8.05208 29.1562 7.6875C29.0729 7.95833 29.0104 8.23438 28.9688 8.51562C28.9271 8.78646 28.9062 9.0625 28.9062 9.34375V9.60938C28.9062 9.69271 28.9167 9.77604 28.9375 9.85938C28.9062 9.91146 28.8594 9.94792 28.7969 9.96875C28.7448 9.98958 28.7135 10.0312 28.7031 10.0938C28.6927 10.1458 28.6875 10.1979 28.6875 10.25C28.6979 10.3021 28.6979 10.3542 28.6875 10.4062C28.6667 10.6562 28.6354 10.8958 28.5938 11.125C28.5312 11.4688 28.4583 11.8177 28.375 12.1719C28.2917 12.5156 28.25 12.8698 28.25 13.2344C28.25 13.2552 28.25 13.2865 28.25 13.3281C28.2604 13.3594 28.2656 13.3854 28.2656 13.4062C28.099 13.5521 28.0104 13.7344 28 13.9531C27.9896 14.1719 27.9635 14.3802 27.9219 14.5781C27.8698 14.8698 27.8073 15.1615 27.7344 15.4531C27.6615 15.7344 27.599 16.026 27.5469 16.3281C27.5156 16.4948 27.4896 16.6615 27.4688 16.8281C27.4479 16.9844 27.4271 17.1458 27.4062 17.3125C27.3958 17.4062 27.3594 17.4844 27.2969 17.5469C27.2448 17.6094 27.2083 17.6823 27.1875 17.7656C27.1771 17.8385 27.1719 17.9219 27.1719 18.0156C27.1823 18.099 27.1875 18.1771 27.1875 18.25C27.1875 18.375 27.1771 18.4948 27.1562 18.6094C27.1354 18.7135 27.0729 18.8073 26.9688 18.8906C26.9896 19.1615 27.0365 19.3906 27.1094 19.5781C27.1823 19.776 27.2656 19.9948 27.3594 20.2344H27.75V20.2969C27.75 20.401 27.7656 20.4948 27.7969 20.5781C27.8385 20.6615 27.9167 20.6979 28.0312 20.6875C28.0208 20.7292 28.0156 20.7812 28.0156 20.8438C28.0156 20.9375 28.0312 21.0208 28.0625 21.0938C28.1042 21.1771 28.1354 21.2656 28.1562 21.3594C27.9479 21.7031 27.724 21.9583 27.4844 22.125C27.2448 22.2917 26.9167 22.375 26.5 22.375H26.25C26.1979 22.2083 26.1354 22.0469 26.0625 21.8906C25.9896 21.7344 25.9167 21.5781 25.8438 21.4219C25.7812 21.2656 25.724 21.1042 25.6719 20.9375C25.6302 20.7812 25.6094 20.6146 25.6094 20.4375C25.6094 20.3958 25.6146 20.3542 25.625 20.3125C25.6354 20.2812 25.6406 20.2448 25.6406 20.2031C25.6406 20.151 25.6198 20.1198 25.5781 20.1094C25.5365 20.099 25.5156 20.0469 25.5156 19.9531C25.5156 19.8802 25.5104 19.8125 25.5 19.75C25.5 19.6875 25.5 19.6198 25.5 19.5469C25.5 19.2031 25.526 18.8646 25.5781 18.5312C25.6302 18.1875 25.6667 17.8438 25.6875 17.5C25.7396 17.4479 25.7656 17.3802 25.7656 17.2969C25.7656 17.2135 25.7917 17.1458 25.8438 17.0938V16.9844C25.8438 16.7969 25.8646 16.6094 25.9062 16.4219C25.9479 16.2344 25.9948 16.0521 26.0469 15.875C26.099 15.6979 26.1458 15.5156 26.1875 15.3281C26.2292 15.1406 26.25 14.9531 26.25 14.7656V14.5156C26.25 14.4427 26.2812 14.4115 26.3438 14.4219C26.4167 14.4219 26.4583 14.3802 26.4688 14.2969C26.4896 14.151 26.5 14.0104 26.5 13.875C26.5104 13.7292 26.526 13.5833 26.5469 13.4375C26.599 13.1562 26.6562 12.875 26.7188 12.5938C26.7812 12.3021 26.8125 12.0104 26.8125 11.7188V11.6719C26.8125 11.6406 26.8385 11.5781 26.8906 11.4844C26.9427 11.3802 26.9688 11.2812 26.9688 11.1875C26.9688 11.1146 26.9531 11.0469 26.9219 10.9844C26.9323 10.9948 26.9531 11 26.9844 11C27.026 11 27.0521 10.9896 27.0625 10.9688C27.0833 10.9375 27.1094 10.9115 27.1406 10.8906C27.1094 10.849 27.0938 10.8073 27.0938 10.7656C27.0938 10.7135 27.099 10.6667 27.1094 10.625C27.1302 10.5729 27.1406 10.5208 27.1406 10.4688C27.1406 10.3958 27.1042 10.3438 27.0312 10.3125C27.1562 10.0833 27.2448 9.83854 27.2969 9.57812C27.3594 9.31771 27.401 9.05208 27.4219 8.78125C27.4531 8.51042 27.4792 8.23958 27.5 7.96875C27.5208 7.6875 27.5677 7.42188 27.6406 7.17188C27.6198 7.10938 27.6042 7.04167 27.5938 6.96875C27.5938 6.89583 27.5938 6.82812 27.5938 6.76562C27.5938 6.72396 27.5885 6.68229 27.5781 6.64062C27.5677 6.58854 27.5729 6.54167 27.5938 6.5C27.5938 6.47917 27.599 6.45312 27.6094 6.42188L27.6406 6.32812C27.6615 6.25521 27.6719 6.18229 27.6719 6.10938C27.6823 6.02604 27.6927 5.94271 27.7031 5.85938C27.724 5.61979 27.7292 5.375 27.7188 5.125C27.7188 4.875 27.7292 4.625 27.75 4.375C27.7188 4.33333 27.6875 4.30208 27.6562 4.28125C27.625 4.25 27.6042 4.20833 27.5938 4.15625C27.6771 4.01042 27.7656 3.875 27.8594 3.75C27.9635 3.61458 28.099 3.51042 28.2656 3.4375C28.2969 3.55208 28.3802 3.60938 28.5156 3.60938C28.5781 3.60938 28.6562 3.59375 28.75 3.5625C28.8438 3.53125 28.9062 3.48958 28.9375 3.4375C29.1146 3.5 29.2917 3.53125 29.4688 3.53125C29.6562 3.52083 29.8281 3.5625 29.9844 3.65625C30.0156 3.8125 30.0573 3.97396 30.1094 4.14062C30.1615 4.30729 30.2344 4.45833 30.3281 4.59375C30.349 4.72917 30.3698 4.89583 30.3906 5.09375C30.4115 5.28125 30.4323 5.47917 30.4531 5.6875C30.474 5.88542 30.5052 6.07812 30.5469 6.26562C30.5885 6.44271 30.6458 6.58333 30.7188 6.6875C30.7292 6.875 30.7604 7.0625 30.8125 7.25C30.8646 7.4375 30.9219 7.61979 30.9844 7.79688C31.0469 7.96354 31.099 8.11979 31.1406 8.26562C31.1927 8.41146 31.2188 8.53125 31.2188 8.625C31.2188 8.70833 31.2031 8.76562 31.1719 8.79688C31.151 8.81771 31.1302 8.85938 31.1094 8.92188C31.151 9.03646 31.2083 9.13542 31.2812 9.21875C31.3542 9.29167 31.4323 9.38021 31.5156 9.48438C31.6719 10.0781 31.875 10.6562 32.125 11.2188C32.375 11.7812 32.6771 12.3229 33.0312 12.8438C33.125 12.8542 33.1979 12.8802 33.25 12.9219C33.3125 12.9635 33.4062 12.974 33.5312 12.9531V13.0625C33.5312 13.1667 33.5521 13.2396 33.5938 13.2812C33.6875 13.3438 33.7969 13.375 33.9219 13.375C34.0573 13.375 34.1615 13.3385 34.2344 13.2656C34.3177 13.1823 34.3958 13.0885 34.4688 12.9844C34.5417 12.8802 34.6146 12.7812 34.6875 12.6875C34.7604 12.5938 34.8594 12.5312 34.9844 12.5V12.4688C34.9844 12.3854 35 12.3177 35.0312 12.2656C35.0729 12.2031 35.0938 12.1354 35.0938 12.0625C35.2083 11.9792 35.2969 11.875 35.3594 11.75C35.4219 11.625 35.4792 11.5 35.5312 11.375C35.5833 11.2396 35.6406 11.1146 35.7031 11C35.776 10.8854 35.8698 10.7917 35.9844 10.7188C36.1302 10.2708 36.3073 9.85417 36.5156 9.46875C36.724 9.08333 36.9427 8.69271 37.1719 8.29688C37.1719 8.26562 37.1667 8.23438 37.1562 8.20312C37.1458 8.16146 37.1406 8.125 37.1406 8.09375C37.1406 8.08333 37.151 8.03646 37.1719 7.95312C37.224 7.84896 37.2708 7.75 37.3125 7.65625C37.3542 7.5625 37.3906 7.45833 37.4219 7.34375C37.526 7.02083 37.6198 6.70312 37.7031 6.39062C37.7969 6.07812 37.9323 5.78125 38.1094 5.5V5.10938C38.2969 4.73438 38.4271 4.33854 38.5 3.92188C38.5833 3.50521 38.6823 3.09896 38.7969 2.70312C38.8177 2.58854 38.8542 2.47396 38.9062 2.35938C38.9688 2.23438 39.0417 2.14583 39.125 2.09375C39.0938 2.03125 39.0781 1.96875 39.0781 1.90625C39.0781 1.82292 39.0885 1.75 39.1094 1.6875C39.1406 1.61458 39.1667 1.54167 39.1875 1.46875C39.1562 1.39583 39.1406 1.30208 39.1406 1.1875C39.1406 1.04167 39.1823 0.90625 39.2656 0.78125C39.349 0.645833 39.474 0.557292 39.6406 0.515625C39.7448 0.546875 39.8333 0.598958 39.9062 0.671875C39.9792 0.744792 40.0469 0.822917 40.1094 0.90625C40.1823 0.979167 40.2552 1.04167 40.3281 1.09375C40.4115 1.13542 40.5156 1.14583 40.6406 1.125C40.724 1.28125 40.7812 1.44792 40.8125 1.625C40.8438 1.79167 40.8594 1.96354 40.8594 2.14062C40.8594 2.38021 40.8385 2.63021 40.7969 2.89062C40.7552 3.14062 40.7396 3.39583 40.75 3.65625C40.6667 3.82292 40.6042 4.00521 40.5625 4.20312C40.5312 4.39062 40.5 4.58333 40.4688 4.78125C40.4375 4.97917 40.401 5.17188 40.3594 5.35938C40.3177 5.54688 40.2448 5.72396 40.1406 5.89062C40.1094 6.35938 40.0729 6.81771 40.0312 7.26562C40 7.71354 39.9479 8.16146 39.875 8.60938L39.7344 9.5C39.7135 9.57292 39.6927 9.65625 39.6719 9.75C39.651 9.83333 39.6406 9.90625 39.6406 9.96875C39.6406 10.0312 39.6458 10.099 39.6562 10.1719C39.6667 10.2344 39.6979 10.2812 39.75 10.3125C39.6771 10.4167 39.625 10.5417 39.5938 10.6875C39.5625 10.8333 39.5312 10.9896 39.5 11.1562L39.4219 11.6406C39.401 11.7969 39.3594 11.9375 39.2969 12.0625V12.2344C39.2969 12.651 39.224 13.0781 39.0781 13.5156V13.5938C39.0781 13.6458 39.0729 13.6927 39.0625 13.7344C39.0625 13.7656 39.0625 13.8073 39.0625 13.8594C39.0625 13.9323 39.0833 13.9896 39.125 14.0312C39.0417 14.3021 38.9635 14.5833 38.8906 14.875C38.8177 15.1562 38.7656 15.4479 38.7344 15.75C38.7031 16.1562 38.6979 16.5729 38.7188 17C38.7396 17.4167 38.6875 17.8229 38.5625 18.2188C38.625 18.4062 38.6667 18.6094 38.6875 18.8281L38.75 19.4844C38.7708 19.7031 38.8021 19.9115 38.8438 20.1094C38.8958 20.3177 38.9896 20.4896 39.125 20.625C39.1354 20.6458 39.1406 20.6771 39.1406 20.7188C39.1406 20.8021 39.1198 20.8646 39.0781 20.9062C39.099 21.0104 39.1354 21.099 39.1875 21.1719C39.2396 21.2448 39.2917 21.3125 39.3438 21.375C39.3958 21.4479 39.4375 21.526 39.4688 21.6094C39.5104 21.6927 39.5312 21.7969 39.5312 21.9219C39.6146 22.0365 39.7448 22.125 39.9219 22.1875C40.099 22.25 40.276 22.3125 40.4531 22.375C40.6406 22.4375 40.8021 22.5156 40.9375 22.6094C41.0729 22.7135 41.1406 22.8594 41.1406 23.0469Z" fill="#2563EB"/>
</svg>
