<svg height="512pt" viewBox="0 -16 512.00101 512" width="512pt" xmlns="http://www.w3.org/2000/svg"><g fill="#18191b"><path d="m151.160156 206.105469c0-4.835938-.875-9.582031-2.539062-14.03125h65.988281c4.179687 0 7.570313-3.390625 7.570313-7.574219v-49.988281c3.613281 1.054687 7.382812 1.59375 11.222656 1.59375 22.09375 0 40.070312-17.976563 40.070312-40.070313 0-22.089844-17.976562-40.066406-40.070312-40.066406-3.839844 0-7.609375.539062-11.222656 1.59375v-49.992188c0-4.179687-3.390626-7.570312-7.570313-7.570312h-194.179687c-11.265626 0-20.429688 9.167969-20.429688 20.429688v164.070312c0 4.183594 3.390625 7.574219 7.570312 7.574219h65.988282c-1.664063 4.449219-2.539063 9.195312-2.539063 14.03125 0 22.09375 17.976563 40.070312 40.070313 40.070312s40.070312-17.976562 40.070312-40.070312zm-64.996094 0c0-6.113281 2.242188-12 6.3125-16.566407 1.984376-2.230468 2.476563-5.414062 1.257813-8.136718-1.222656-2.722656-3.925781-4.472656-6.910156-4.472656h-71.679688v-156.5c0-2.914063 2.371094-5.285157 5.285157-5.285157h186.609374v54.390625c0 2.832032 1.582032 5.425782 4.097657 6.726563s5.546875 1.085937 7.859375-.554688c4.230468-3.007812 9.214844-4.597656 14.410156-4.597656 13.742188 0 24.925781 11.183594 24.925781 24.925781 0 13.746094-11.183593 24.925782-24.925781 24.925782-5.195312 0-10.179688-1.589844-14.410156-4.59375-2.308594-1.640626-5.34375-1.855469-7.859375-.558594-2.515625 1.300781-4.097657 3.894531-4.097657 6.730468v54.390626h-71.679687c-2.984375 0-5.691406 1.75-6.910156 4.472656-1.222657 2.722656-.730469 5.90625 1.253906 8.136718 4.070313 4.566407 6.3125 10.453126 6.3125 16.566407 0 13.746093-11.179687 24.925781-24.925781 24.925781-13.742188 0-24.925782-11.179688-24.925782-24.925781zm0 0"/><path d="m491.570312 111.023438h-122.300781c-4.183593 0-7.574219 3.390624-7.574219 7.574218 0 4.179688 3.390626 7.570313 7.574219 7.570313h122.300781c2.914063 0 5.285157 2.371093 5.285157 5.285156v156.5h-59.140625c2.140625-4.949219 3.265625-10.332031 3.265625-15.90625 0-22.09375-17.976563-40.070313-40.070313-40.070313s-40.066406 17.976563-40.066406 40.070313c0 5.574219 1.121094 10.957031 3.261719 15.90625h-59.144531v-52.785156c4.332031 1.5625 8.929687 2.382812 13.601562 2.382812 22.09375 0 40.066406-17.976562 40.066406-40.070312s-17.972656-40.066407-40.066406-40.066407c-4.671875 0-9.269531.820313-13.601562 2.382813v-33.628906h34.023437c4.179687 0 7.570313-3.390625 7.570313-7.574219 0-4.179688-3.390626-7.570312-7.570313-7.570312h-41.59375c-4.179687 0-7.570313 3.390624-7.570313 7.570312v54.246094c0 2.957031 1.722657 5.644531 4.414063 6.878906 2.6875 1.234375 5.851563.789062 8.09375-1.140625 4.515625-3.882813 10.28125-6.023437 16.234375-6.023437 13.746094 0 24.925781 11.183593 24.925781 24.925781 0 13.742187-11.179687 24.925781-24.925781 24.925781-5.953125 0-11.71875-2.140625-16.234375-6.023438-2.242187-1.929687-5.40625-2.375-8.09375-1.140624-2.691406 1.234374-4.414063 3.921874-4.414063 6.882812v65.824219h-78.804687c-2.796875 0-5.363281 1.539062-6.679687 4.007812-1.316407 2.464844-1.167969 5.453125.386718 7.777344 2.746094 4.101563 4.199219 8.886719 4.199219 13.84375 0 13.742187-11.183594 24.921875-24.925781 24.921875-13.746094 0-24.925782-11.179688-24.925782-24.921875 0-4.957031 1.449219-9.742187 4.195313-13.84375 1.554687-2.320313 1.703125-5.3125.386719-7.777344-1.316406-2.464843-3.882813-4.007812-6.679688-4.007812h-66.621094c-4.179687 0-7.570312 3.390625-7.570312 7.574219v70.769531c0 4.179687 3.390625 7.570312 7.570312 7.570312 4.183594 0 7.574219-3.390625 7.574219-7.570312v-63.199219h47.386719c-.917969 3.390625-1.386719 6.910156-1.386719 10.480469 0 22.09375 17.972657 40.070312 40.066407 40.070312s40.070312-17.976562 40.070312-40.070312c0-3.570313-.46875-7.089844-1.386719-10.480469h67.140625v56.191406c0 2.742188 1.480469 5.269532 3.871094 6.605469 2.390625 1.339844 5.320312 1.285156 7.65625-.148437 3.902344-2.390626 8.398438-3.65625 13-3.65625 13.742188 0 24.925781 11.183593 24.925781 24.925781 0 13.746093-11.183593 24.925781-24.925781 24.925781-4.601562 0-9.097656-1.261719-13-3.65625-2.335938-1.429688-5.261719-1.488281-7.65625-.148438-2.390625 1.339844-3.871094 3.867188-3.871094 6.605469v50.140625h-186.605468c-2.914063 0-5.285157-2.371094-5.285157-5.289062v-63.011719c0-4.179687-3.390625-7.570313-7.574219-7.570313-4.179687 0-7.570312 3.390626-7.570312 7.570313v63.011719c0 11.265625 9.164062 20.433594 20.429688 20.433594h388.359374c11.265626 0 20.429688-9.167969 20.429688-20.433594v-328.136719c0-11.265625-9.164062-20.429687-20.429688-20.429687zm0 353.859374h-186.609374v-38.910156c3.054687.734375 6.207031 1.109375 9.382812 1.109375 22.09375 0 40.070312-17.972656 40.070312-40.066406s-17.976562-40.066406-40.070312-40.066406c-3.179688 0-6.328125.375-9.382812 1.109375v-44.964844h73.496093c3.089844 0 5.871094-1.878906 7.023438-4.75 1.152343-2.871094.445312-6.152344-1.792969-8.292969-4.96875-4.75-7.703125-11.148437-7.703125-18.003906 0-13.746094 11.179687-24.925781 24.925781-24.925781 13.742188 0 24.925782 11.179687 24.925782 24.925781 0 6.855469-2.738282 13.253906-7.707032 18.007813-2.234375 2.136718-2.945312 5.417968-1.792968 8.289062 1.152343 2.871094 3.933593 4.75 7.027343 4.75h73.492188v156.5c0 2.917969-2.371094 5.289062-5.285157 5.289062zm0 0"/></g></svg>