<svg id="Capa_1" enable-background="new 0 0 512 512" height="512" viewBox="0 0 512 512" width="512" xmlns="http://www.w3.org/2000/svg"><g><circle cx="90.389" cy="50.192" r="13.892"/><circle cx="133.124" cy="50.192" r="13.892"/><circle cx="175.859" cy="50.192" r="13.892"/><path d="m298.44 144.475c4.123 0 7.465-3.342 7.465-7.465s-3.342-7.465-7.465-7.465h-117.968c-4.123 0-7.465 3.342-7.465 7.465s3.342 7.465 7.465 7.465z"/><path d="m78.823 175.019c0 4.123 3.342 7.465 7.465 7.465h306.335c4.123 0 7.465-3.342 7.465-7.465s-3.342-7.465-7.465-7.465h-306.334c-4.123 0-7.466 3.342-7.466 7.465z"/><path d="m86.289 219.172h69.571c4.123 0 7.465-3.342 7.465-7.465s-3.342-7.465-7.465-7.465h-69.571c-4.123 0-7.465 3.342-7.465 7.465-.001 4.123 3.342 7.465 7.465 7.465z"/><path d="m472.683 438.372-49.16-49.16c16.419-4.371 28.554-19.361 28.554-37.138v-313.644c0-21.191-17.24-38.43-38.43-38.43h-102.313c-4.123 0-7.465 3.342-7.465 7.465s3.342 7.465 7.465 7.465h102.312c12.958 0 23.5 10.542 23.5 23.5v47.024h-395.38v-47.024c0-12.958 10.542-23.5 23.5-23.5h210.811c4.123 0 7.465-3.342 7.465-7.465s-3.343-7.465-7.466-7.465h-210.811c-21.19 0-38.43 17.239-38.43 38.43v250.942c0 4.123 3.342 7.465 7.465 7.465s7.465-3.342 7.465-7.465v-188.987h395.38v251.689c0 12.958-10.542 23.5-23.5 23.5h-3.761s-122.168-122.867-125.959-125.506l-73.318-39.219c-.284-.152-.578-.285-.879-.4-7.35-2.781-15.388-1.078-20.977 4.447-5.589 5.524-7.386 13.542-4.69 20.924.113.309.246.61.399.902l38.74 73.981c.85 1.723 64.39 64.871 64.39 64.871h-222.325c-12.958 0-23.5-10.542-23.5-23.5v-26.495c0-4.123-3.342-7.465-7.465-7.465s-7.465 3.342-7.465 7.465v26.495c0 21.191 17.24 38.43 38.43 38.43h237.257l63.064 63.064c2.915 2.915 7.642 2.915 10.557 0 2.916-2.915 2.916-7.642 0-10.557l-124.968-124.969 40.032-40.032 170.919 170.919c11.037 11.037 11.037 28.995 0 40.032s-28.995 11.037-40.032 0l-21.875-21.875c-2.915-2.915-7.642-2.915-10.557 0-2.916 2.915-2.916 7.642 0 10.557l21.875 21.875c15.491 16.211 44.77 17.069 61.146 0 16.211-15.491 17.068-44.77 0-61.146zm-193.283-172.169-40.032 40.032-3.468-3.468-10.45-19.955 30.68-30.68 19.778 10.579zm-80.152-40.689c1.356-.522.374-1.71 4.83-1.226l38.296 20.485-24.181 24.181-20.23-38.632c-.717-2.472.642-4.172 1.285-4.808z"/></g></svg>